<svg width="359" height="107.39999" xmlns="http://www.w3.org/2000/svg">
 <metadata id="metadata8">image/svg+xml</metadata>
 <defs>
  <clipPath clipPathUnits="userSpaceOnUse" id="clipPath18">
   <path d="m-110.494477,138.698404l396,0l0,-118.8l-396,0l0,118.8z" id="path16"/>
  </clipPath>
 </defs>
 <g>
  <title>background</title>
  <rect fill="none" id="canvas_background" height="109.39999" width="361" y="-1" x="-1"/>
 </g>
 <g>
  <title>Layer 1</title>
  <g id="g10" transform="matrix(1.3333333,0,0,-1.3333333,0,158.4) ">
   <g id="g12">
    <g id="g14" clip-path="url(#clipPath18)">
     <g id="g20">
      <path fill="#ffffff" fill-rule="nonzero" d="m66.55043,65.972604c-7.317,0 -13.276,6.008 -13.276,13.391c0,7.393 5.959,13.406 13.276,13.406c7.321,0 13.289,-6.013 13.289,-13.406c0,-7.383 -5.968,-13.391 -13.289,-13.391m0,35.769c-12.273,0 -22.245,-10.046 -22.245,-22.378l0,-34.846c0,-2.471 2.014,-4.479 4.487,-4.479c2.48,0 4.482,2.008 4.482,4.479l0,16.922c3.826,-2.883 8.462,-4.443 13.276,-4.443c12.263,0 22.245,10.035 22.245,22.367c0,12.332 -9.982,22.378 -22.245,22.378" id="path22"/>
     </g>
     <g id="g24">
      <path fill="#ffffff" fill-rule="nonzero" d="m25.02362,82.802705c-0.259,0.043 -0.479,0.083 -0.741,0.125l-0.814,0.152c-5.188,0.907 -7.112,1.954 -7.329,3.97c-0.117,1.008 0.155,1.916 0.815,2.732c1.003,1.241 2.835,2.079 5.029,2.313c0.263,0.047 0.494,0.06 0.741,0.073c2.515,0.072 5.033,-0.812 7.703,-2.722c1.138,-0.809 2.507,-1.624 3.985,-1.58c0.701,0.028 1.384,0.238 1.963,0.662c1.99,1.308 2.53,3.921 1.276,6.082c-2.723,4.682 -9.484,6.589 -14.977,6.429c-0.555,-0.033 -1.104,-0.068 -1.628,-0.116c-4.183,-0.461 -7.873,-2.183 -10.426,-4.896c-2.584,-2.766 -3.807,-6.28 -3.402,-9.938c1.022,-9.326 10.92,-11.088 14.65,-11.733l1.573,-0.287c5.2,-0.921 7.105,-1.968 7.336,-3.981c0.274,-2.572 -2.136,-4.65 -5.855,-5.056c-0.308,-0.032 -0.597,-0.056 -0.879,-0.059c-3.502,-0.105 -6.835,1.459 -9.91,4.644c-0.96,0.991 -2.452,2.33 -4.269,2.264c-0.494,-0.024 -0.982,-0.131 -1.47,-0.353c-2.218,-0.998 -3.209,-3.57 -2.241,-5.852c2.029,-4.852 9.034,-9.854 18.006,-9.576c0.552,0.011 1.149,0.056 1.716,0.118c8.675,0.939 14.631,7.313 13.809,14.838c-1.002,9.344 -10.905,11.08 -14.661,11.747" id="path26"/>
     </g>
     <g id="g28">
      <path fill="#ffffff" fill-rule="nonzero" d="m238.630035,65.972604c-7.784,0 -14.122,6.008 -14.122,13.391c0,7.393 6.338,13.406 14.122,13.406c7.788,0 14.137,-6.013 14.137,-13.406c0,-7.383 -6.349,-13.391 -14.137,-13.391m0,35.769c-12.729,0 -23.089,-10.046 -23.089,-22.378c0,-12.332 10.36,-22.367 23.089,-22.367c12.745,0 23.121,10.035 23.121,22.367c0,12.332 -10.376,22.378 -23.121,22.378" id="path30"/>
     </g>
     <g id="g32">
      <path fill="#ffffff" fill-rule="nonzero" d="m149.342437,79.194303l0,0.171c0,7.393 6.334,13.404 14.129,13.404c4.278,0 8.293,-1.827 10.963,-4.949l-25.092,-8.626zm14.129,22.546c-12.74,0 -23.105,-10.032 -23.105,-22.375c0,-12.334 10.365,-22.368 23.105,-22.368c7.128,0 13.747,3.103 18.168,8.542c1.55,1.929 1.257,4.746 -0.66,6.308c-0.802,0.64 -1.817,1.004 -2.831,1.004c-1.35,0 -2.627,-0.61 -3.468,-1.656c-2.703,-3.321 -6.8,-5.224 -11.209,-5.224c-4.243,0 -8.224,1.793 -10.889,4.871l29.898,10.256c1.13,0.392 2.067,1.241 2.569,2.318c0.551,1.081 0.594,2.352 0.181,3.468c-3.275,8.885 -12.015,14.856 -21.759,14.856" id="path34"/>
     </g>
     <g id="g36">
      <path fill="#ffffff" fill-rule="nonzero" d="m211.031432,100.380307c-13.805,0 -21.404,-7.942 -21.404,-22.368l0,-15.732c0,-2.466 1.998,-4.471 4.494,-4.471c2.472,0 4.482,2.005 4.482,4.471l0,15.732c0,9.274 3.823,13.4 12.428,13.4c2.488,0 4.498,2.012 4.498,4.482c0,2.479 -2.01,4.486 -4.498,4.486" id="path38"/>
     </g>
     <g id="g40">
      <path fill="#ffffff" fill-rule="nonzero" d="m114.812621,101.741704c-4.305,0 -8.49,-1.298 -12.012,-3.674l0,15.643c0,2.478 -2.006,4.493 -4.478,4.493c-2.472,0 -4.486,-2.015 -4.486,-3.986l0,-51.41c0,-2.967 2.014,-4.992 4.486,-4.992c2.472,0 4.478,2.025 4.478,4.484l0,19.108c0,6.264 5.388,11.362 12.012,11.362c6.611,0 11.992,-5.098 11.992,-11.362l0,-19.127c0,-2.466 2.017,-4.472 4.494,-4.472c2.472,0 4.482,2.006 4.482,4.472l0,19.127c0,11.213 -9.404,20.334 -20.968,20.334" id="path42"/>
     </g>
     <g id="g44">
      <path fill="#ffffff" fill-rule="nonzero" d="m-51.855279,52.499006c-16.025,0 -29.017,12.992 -29.017,29.019c0,16.027 12.992,29.017 29.017,29.017c16.028,0 29.022,-12.99 29.022,-29.017c0,-16.027 -12.994,-29.019 -29.022,-29.019m0,66.301l-37.729,0c-1.249,0 -1.611,-1.033 -0.508,-1.658c1.566,-0.89 8.362,-4.75 8.362,-4.75c4.66,-2.825 1.219,-7.032 1.219,-7.032l0.01,0.006c-5.391,-6.465 -8.638,-14.777 -8.638,-23.848c0,-20.592 16.694,-37.282 37.284,-37.282c20.588,0 37.282,16.69 37.282,37.282c0,20.589 -16.694,37.282 -37.282,37.282" id="path46"/>
     </g>
     <g id="g48">
      <path fill="#ffffff" fill-rule="nonzero" d="m-28.860177,81.517503c0,-4.674 -2.598,-8.465 -5.8,-8.465c-3.205,0 -5.803,3.791 -5.803,8.465c0,4.673 2.598,8.464 5.803,8.464c3.202,0 5.8,-3.791 5.8,-8.464" id="path50"/>
     </g>
     <g id="g52">
      <path fill="#ffffff" fill-rule="nonzero" d="m-46.092576,81.517503c0,-6.563 -3.645,-11.881 -8.143,-11.881c-4.497,0 -8.143,5.318 -8.143,11.881c0,6.562 3.646,11.88 8.143,11.88c4.498,0 8.143,-5.318 8.143,-11.88" id="path54"/>
     </g>
     <g id="g56">
      <path fill="#ffffff" fill-rule="nonzero" d="m267.640838,110.810003c0.691,0 1.075,0.346 1.075,0.845c0,0.538 -0.384,0.844 -1.075,0.844l-1.267,0l0,-1.689l1.267,0zm-4.531,2.381c0,0.538 0.46,1 0.998,1l2.382,0c1.766,0 2.957,-0.769 2.957,-2.421c0,-0.998 -0.499,-1.729 -1.306,-2.112l2.15,-1.037c0.192,-0.23 0.269,-0.423 0.269,-0.692c0,-0.537 -0.461,-0.96 -0.999,-0.96c-0.345,0 -0.575,0.154 -0.767,0.385l-1.499,1.881l-0.921,0l0,-1.267c0,-0.537 -0.462,-0.999 -0.999,-0.999c-0.538,0 -0.998,0.462 -0.998,0.999l-1.267,5.223zm8.833,-2.65l0,0.038c0,3.266 -2.534,5.954 -5.915,5.954c-3.341,0 -5.914,-2.726 -5.914,-5.992l0,-0.038c0,-3.265 2.535,-5.953 5.914,-5.953c3.342,0 5.915,2.727 5.915,5.991m-11.331,-0.038l0,0.038c0,3.65 2.958,6.723 6.683,6.723c3.765,0 6.683,-3.035 6.683,-6.685l0,-0.038c0,-3.649 -2.958,-6.72 -6.683,-6.72c-3.763,0 -6.683,3.033 -6.683,6.682" id="path58"/>
     </g>
    </g>
   </g>
  </g>
 </g>
</svg>