<svg width="441.08" height="139.69" xmlns="http://www.w3.org/2000/svg">
 <defs>
  <style>.cls-1{fill:#fff;}</style>
 </defs>
 <g>
  <title>background</title>
  <rect fill="none" id="canvas_background" height="141.69" width="443.08" y="-1" x="-1"/>
 </g>
 <g>
  <title>Layer 1</title>
  <polygon id="svg_1" points="503.8 56.24 495.85 77.1 508.75 77.1 492.86 118.83 479.95 118.83 472.01 139.69 523.62 139.69 531.57 118.83 518.67 118.83 534.56 77.1 547.47 77.1 555.41 56.24 503.8 56.24" class="cls-1"/>
  <path id="svg_2" d="m643.61,56.24l-53,0a32.41,32.41 0 0 0 -30.24,20.86l0,0l-14.65,38.48a17.78,17.78 0 0 0 16.61,24.11l55.07,0a32.31,32.31 0 0 0 17.78,-5.32l4.55,5.32l12.9,0l4,-10.43l-8.92,-10.44l13.91,-36.5a19.24,19.24 0 0 0 -18.01,-26.08zm-22.69,31.29l-7.92,20.87l6.64,7.76a16.19,16.19 0 0 1 -8.89,2.67l-29.29,0a7.69,7.69 0 0 1 -7.19,-10.43l0,0l7.93,-20.88a16.21,16.21 0 0 1 15.15,-10.42l29.26,0a7.69,7.69 0 0 1 7.19,10.43l-4,10.43l-8.88,-10.43z" class="cls-1"/>
  <path id="svg_3" d="m401.6,56.25a1.66,1.66 0 0 0 -0.93,0.3l-38.57,26.81l-38.75,-26.81a1.66,1.66 0 0 0 -0.93,-0.3l-34.06,0a1.63,1.63 0 0 0 -1.56,1.15a2,2 0 0 0 -0.07,0.49a1.62,1.62 0 0 0 0.71,1.34l55.19,37.36l-59.88,40.11a1.63,1.63 0 0 0 -0.72,1.35a1.55,1.55 0 0 0 0.07,0.48a1.63,1.63 0 0 0 1.56,1.16l34.8,0a1.56,1.56 0 0 0 0.93,-0.3l42.71,-29.56l42.33,29.56a1.69,1.69 0 0 0 0.94,0.3l34.24,0a1.63,1.63 0 0 0 1.56,-1.16a1.55,1.55 0 0 0 0.07,-0.48a1.6,1.6 0 0 0 -0.72,-1.34l-59.52,-40.12l55.37,-37.35a1.64,1.64 0 0 0 0.72,-1.35a1.51,1.51 0 0 0 -0.07,-0.48a1.63,1.63 0 0 0 -1.55,-1.16l-33.87,0z" class="cls-1"/>
  <path id="svg_4" d="m133.88,56.25a1.65,1.65 0 0 0 -1.26,0.6l-51,62.41c-2.39,-3 -50.09,-62.4 -50.09,-62.4a1.65,1.65 0 0 0 -1.27,-0.61l-28.63,0a1.64,1.64 0 0 0 -1.26,2.67l66,80.17a1.62,1.62 0 0 0 1.26,0.6l27.87,0a1.64,1.64 0 0 0 1.25,-0.59l67,-80.17a1.64,1.64 0 0 0 -1.26,-2.68l-28.61,0z" class="cls-1"/>
  <path id="svg_5" d="m179.07,56.24a48.06,48.06 0 0 1 -5.26,-22.64c0,-18.26 9.19,-33.6 20.28,-33.6l70.47,0c3.75,0 6.84,5.11 6.84,11.32s-3.09,11.32 -6.84,11.32l-70.47,0c-3.75,0 -6.62,5.11 -6.62,11s2.66,11.5 6.62,11.5l70.47,0c3.75,0 6.84,5 6.84,11.15l0,0c0,6.12 -3.09,11.15 -6.84,11.15l-70.47,0c-4,0 -6.62,5.66 -6.62,11.5s2.87,11 6.62,11l70.47,0c3.75,0 6.84,5.11 6.84,11.32s-3.09,11.32 -6.84,11.32l-70.47,0c-11.13,0 -20.28,-15.34 -20.28,-33.6a48.06,48.06 0 0 1 5.26,-22.64l0,-0.1z" class="cls-1"/>
  <path id="svg_6" d="m665.74,133.73l0.68,0a1.47,1.47 0 0 1 0.91,0.24a5.45,5.45 0 0 1 1.2,1.65l0.63,1.12l1.4,0l-0.87,-1.39a7.7,7.7 0 0 0 -1.05,-1.41a1.92,1.92 0 0 0 -0.6,-0.37a2.16,2.16 0 0 0 1.47,-0.65a1.87,1.87 0 0 0 0.56,-1.35a1.83,1.83 0 0 0 -0.33,-1a1.76,1.76 0 0 0 -0.9,-0.69a5.94,5.94 0 0 0 -1.81,-0.2l-2.43,0l0,7.1l1.14,0l0,-3.05zm0,-0.07l1.26,0a3.6,3.6 0 0 1 1.15,0.12a1,1 0 0 1 0.49,0.37a0.93,0.93 0 0 1 0.17,0.56a1,1 0 0 1 -0.36,0.79a2.21,2.21 0 0 1 -1.36,0.3l-1.39,0l0.04,-2.14z" class="cls-1"/>
  <path id="svg_7" d="m664.21,138.81a6.55,6.55 0 0 0 6.56,0a6,6 0 0 0 2.43,-2.44a6.55,6.55 0 0 0 0.88,-3.27a6.67,6.67 0 0 0 -0.88,-3.31a6,6 0 0 0 -2.47,-2.44a6.6,6.6 0 0 0 -6.48,0a6,6 0 0 0 -2.47,2.44a6.62,6.62 0 0 0 0,6.58a6,6 0 0 0 2.43,2.44zm-1.48,-8.47a5.16,5.16 0 0 1 2,-2a5.51,5.51 0 0 1 5.41,0a5.12,5.12 0 0 1 2.06,2a5.49,5.49 0 0 1 0,5.49a5.15,5.15 0 0 1 -2,2a5.54,5.54 0 0 1 -2.74,0.73a5.48,5.48 0 0 1 -2.73,-0.73a5.2,5.2 0 0 1 -2,-2a5.6,5.6 0 0 1 -0.72,-2.73a5.5,5.5 0 0 1 0.72,-2.76z" class="cls-1"/>
 </g>
</svg>